<?xml version="1.0" standalone="no"?>
<!DOCTYPE svg PUBLIC "-//W3C//DTD SVG 20010904//EN" "http://www.w3.org/TR/2001/REC-SVG-20010904/DTD/svg10.dtd">
<svg xmlns="http://www.w3.org/2000/svg" version="1.0" width="4000.000000pt" height="579.000000pt" viewBox="0 0 4000.000000 579.000000" preserveAspectRatio="xMidYMid meet">

<g transform="translate(0.000000,579.000000) scale(0.100000,-0.100000)" fill="#000000" stroke="none">
<path d="M12299 5286 c-2 -2 -51 -6 -109 -10 -134 -8 -363 -25 -415 -31 -22 -2 -43 -4 -47 -4 -5 -1 -8 -998 -8 -2216 l0 -2215 24 0 c24 0 243 16 331 25 28 2 97 7 155 11 58 4 112 8 120 10 8 1 23 3 33 3 16 1 17 113 17 2216 l0 2215 -48 0 c-27 0 -51 -2 -53 -4z"/>
<path d="M28260 5240 c-107 -10 -224 -20 -260 -23 -36 -3 -66 -6 -67 -6 -2 -1 -3 -992 -3 -2202 l0 -2202 83 7 c45 4 100 9 122 11 78 8 161 15 245 20 47 3 100 8 118 11 l32 5 0 2199 0 2200 -37 -1 c-21 -1 -126 -9 -233 -19z"/>
<path d="M1010 5144 c-91 -7 -214 -16 -275 -19 -60 -4 -116 -8 -122 -10 -10 -4 -13 -442 -13 -2150 l0 -2145 1181 2 1181 3 123 300 124 300 -975 3 -974 2 0 1865 0 1865 -42 -1 c-24 -1 -117 -7 -208 -15z"/>
<path d="M17032 4806 c-51 -156 -92 -287 -92 -290 0 -3 272 -6 605 -6 l605 0 0 -1851 0 -1852 93 7 c50 4 112 9 137 11 45 5 312 23 383 27 l37 2 0 1828 0 1828 545 0 545 0 0 290 0 290 -1383 0 -1383 0 -92 -284z"/>
<path d="M33030 4005 l0 -315 300 0 300 0 0 315 0 315 -300 0 -300 0 0 -315z"/>
<path d="M8530 4082 l-295 -147 0 -373 0 -372 -116 0 -117 0 2 -277 1 -278 107 -1 c60 0 110 -3 113 -6 3 -3 6 -246 6 -539 1 -541 5 -629 34 -741 46 -182 173 -336 345 -421 164 -80 326 -113 577 -116 l151 -2 -1 278 -2 278 -70 2 c-118 3 -172 13 -235 44 -74 37 -123 96 -159 187 l-26 67 -3 485 -3 485 248 0 248 0 2 278 1 277 -249 0 -249 0 0 520 c0 286 -3 520 -7 519 -5 0 -141 -67 -303 -147z"/>
<path d="M31841 4060 c-155 -77 -287 -140 -292 -140 -5 0 -9 -155 -9 -375 l0 -375 -115 0 -115 0 0 -275 0 -275 115 0 115 0 0 -562 c1 -310 3 -581 6 -603 18 -140 84 -291 167 -381 153 -168 382 -249 735 -261 l182 -6 0 277 0 276 -57 0 c-81 0 -180 18 -233 41 -97 43 -168 147 -189 279 -7 38 -11 245 -11 503 l0 437 245 0 245 0 0 275 0 275 -245 0 -245 0 0 515 c0 283 -3 515 -8 515 -4 0 -135 -63 -291 -140z"/>
<path d="M4295 3244 c-264 -46 -492 -167 -685 -363 -234 -236 -352 -500 -367 -821 -16 -350 113 -671 376 -930 198 -197 421 -312 687 -354 917 -146 1682 724 1407 1598 -142 452 -537 795 -1003 871 -116 18 -307 18 -415 -1z m407 -569 c284 -92 459 -345 460 -664 0 -399 -277 -691 -657 -691 -382 0 -657 293 -656 697 0 311 178 566 456 656 110 36 289 37 397 2z"/>
<path d="M6800 3253 c-75 -13 -183 -49 -250 -84 -249 -129 -403 -368 -417 -648 -10 -196 35 -338 145 -453 94 -98 202 -156 477 -254 147 -52 233 -93 288 -136 133 -105 105 -334 -50 -408 -65 -31 -184 -32 -264 -3 -77 28 -164 89 -231 161 l-55 60 -176 -203 -176 -204 67 -63 c171 -161 362 -242 603 -255 288 -15 548 82 730 273 141 149 205 304 216 519 11 224 -42 382 -171 511 -91 91 -196 143 -431 214 -276 83 -358 133 -384 233 -16 68 -14 97 14 154 20 39 36 56 78 79 44 25 63 29 127 29 62 0 85 -5 132 -28 73 -36 159 -129 207 -224 l36 -72 165 150 c91 83 174 159 184 169 18 18 18 20 -27 82 -56 79 -193 212 -272 265 -146 98 -256 134 -420 138 -66 1 -131 0 -145 -2z"/>
<path d="M14065 3246 c-180 -42 -297 -124 -402 -282 l-38 -57 -3 153 -3 153 -82 -7 c-45 -4 -100 -9 -122 -11 -46 -5 -136 -12 -245 -20 -41 -3 -94 -8 -118 -11 l-42 -5 0 -1176 0 -1175 63 6 c34 3 103 8 152 11 50 3 101 8 115 10 14 2 70 7 125 10 55 3 112 8 127 11 l27 5 4 702 c4 773 2 747 68 879 57 113 142 182 251 204 55 12 76 11 157 -2 92 -15 191 -98 236 -197 52 -113 54 -153 55 -924 l0 -713 23 0 c12 0 96 7 187 15 91 8 201 17 245 20 118 9 142 14 149 32 10 26 5 1702 -5 1777 -40 279 -233 494 -521 577 -95 27 -315 35 -403 15z"/>
<path d="M20760 3229 c-186 -29 -334 -102 -450 -220 l-60 -62 0 123 0 123 -82 -7 c-89 -8 -157 -14 -228 -21 -25 -2 -90 -7 -145 -11 -55 -4 -107 -8 -115 -10 -8 -1 -18 -3 -22 -3 -5 -1 -8 -526 -8 -1167 l0 -1166 73 6 c39 4 172 15 294 25 123 9 225 19 227 22 3 2 7 315 9 694 3 622 5 696 21 749 27 91 70 168 119 213 91 84 180 111 390 120 l147 6 0 298 -1 299 -57 -1 c-31 -1 -82 -5 -112 -10z"/>
<path d="M24555 3225 c-178 -39 -297 -122 -402 -281 l-38 -57 -3 152 -3 153 -77 -6 c-42 -4 -95 -9 -117 -11 -22 -2 -76 -7 -120 -10 -127 -9 -207 -16 -247 -21 l-38 -6 0 -1164 0 -1164 23 0 c12 0 96 7 187 15 91 8 206 17 255 20 50 4 100 8 112 11 l22 4 3 693 c4 754 3 732 63 865 33 71 123 164 188 193 43 20 68 24 144 23 85 0 97 -3 159 -34 113 -58 179 -159 204 -312 6 -39 10 -338 10 -770 l0 -708 24 0 c13 0 70 4 127 10 150 14 202 18 309 25 52 3 105 8 118 11 l23 5 -3 907 -3 907 -27 80 c-61 178 -182 316 -349 399 -158 78 -380 107 -544 71z"/>
<path d="M26543 3220 c-165 -37 -328 -135 -429 -258 -210 -255 -241 -651 -66 -867 90 -112 212 -183 462 -270 268 -93 381 -163 411 -252 6 -19 9 -65 7 -103 -7 -134 -97 -218 -243 -228 -129 -8 -243 44 -371 169 l-70 70 -170 -196 c-93 -108 -170 -200 -172 -204 -5 -14 120 -123 198 -173 343 -220 828 -192 1128 66 178 153 270 342 280 577 11 264 -76 458 -261 579 -76 49 -160 83 -382 150 -93 28 -192 63 -218 78 -97 52 -146 137 -133 231 8 60 39 106 94 139 42 24 57 27 137 27 81 0 95 -3 144 -30 70 -39 151 -130 193 -216 18 -38 36 -67 40 -66 9 3 352 318 356 327 1 4 -28 47 -67 97 -228 295 -547 425 -868 353z"/>
<path d="M35127 3230 c-511 -81 -915 -450 -1045 -955 -23 -89 -26 -119 -26 -275 0 -145 4 -190 22 -261 118 -475 463 -823 937 -945 99 -26 127 -28 275 -29 182 0 267 12 404 57 192 62 352 162 501 312 55 56 121 133 148 173 290 436 290 950 0 1386 -64 96 -229 261 -327 327 -145 97 -302 164 -460 196 -88 18 -351 26 -429 14z m353 -565 c218 -59 386 -230 451 -460 29 -103 32 -295 6 -395 -65 -247 -255 -434 -492 -484 -168 -35 -359 1 -498 94 -200 133 -300 342 -292 605 10 343 221 597 543 655 63 12 214 4 282 -15z"/>
<path d="M38048 3230 c-177 -32 -322 -128 -419 -277 l-44 -67 -3 153 -3 153 -67 -6 c-37 -3 -157 -12 -267 -21 -110 -8 -215 -18 -232 -21 l-33 -5 0 -1166 0 -1165 63 5 c34 4 154 13 267 22 113 8 219 18 237 20 l32 6 3 692 c4 754 2 732 63 865 33 71 123 164 188 193 42 19 69 24 143 24 84 0 96 -3 160 -35 113 -58 179 -159 204 -312 6 -39 10 -338 10 -771 l0 -709 78 6 c42 4 100 9 127 11 117 11 165 15 255 21 52 4 102 8 110 10 8 1 19 3 23 3 4 1 6 409 5 909 l-3 907 -27 78 c-61 180 -184 321 -350 401 -51 25 -120 52 -153 61 -70 18 -298 28 -367 15z"/>
<path d="M21770 3179 c-41 -4 -119 -13 -172 -19 l-98 -12 -29 -97 c-89 -289 -133 -443 -128 -447 2 -3 83 8 178 25 227 38 269 43 408 42 248 0 377 -45 422 -146 13 -30 19 -72 22 -154 1 -61 1 -113 -1 -115 -2 -2 -33 18 -69 45 -83 63 -142 93 -240 121 -67 20 -100 23 -233 22 -146 0 -160 -2 -250 -32 -262 -87 -442 -278 -520 -554 -15 -49 -23 -116 -27 -204 -21 -486 222 -824 636 -884 103 -15 293 -8 376 15 146 39 269 126 324 230 l26 50 3 -127 c2 -106 5 -128 18 -128 8 0 115 9 237 20 184 17 242 23 295 30 1 0 1 426 0 948 l-3 947 -23 59 c-32 86 -64 136 -120 188 -96 90 -244 146 -459 173 -117 14 -450 17 -573 4z m403 -1309 c81 -31 136 -76 170 -140 27 -51 29 -61 25 -145 -6 -135 -52 -211 -158 -265 -111 -57 -310 -57 -420 0 -87 45 -149 145 -157 255 -13 150 80 269 242 310 84 21 223 14 298 -15z"/>
<path d="M29660 3175 c-69 -7 -149 -16 -177 -20 l-53 -7 -29 -96 c-91 -298 -133 -444 -128 -449 3 -3 84 9 179 25 227 40 271 44 411 43 249 -2 374 -45 418 -146 14 -31 19 -72 22 -158 1 -65 2 -117 0 -117 -1 0 -32 23 -68 50 -85 64 -144 94 -242 122 -66 19 -101 23 -233 22 -147 0 -160 -2 -250 -32 -262 -87 -441 -278 -521 -554 -14 -51 -22 -114 -26 -208 -19 -486 220 -817 637 -881 43 -7 126 -9 195 -6 245 11 411 93 499 247 l31 55 3 -128 3 -129 67 6 c37 4 87 8 112 11 75 7 151 14 235 20 44 3 92 8 108 11 l27 6 0 911 c0 765 -3 923 -15 982 -49 232 -201 352 -520 410 -119 22 -513 28 -685 10z m443 -1305 c150 -56 216 -166 195 -323 -10 -71 -46 -145 -90 -182 -141 -120 -433 -116 -557 6 -47 47 -82 128 -88 204 -13 153 84 273 249 310 83 19 218 12 291 -15z"/>
<path d="M33480 3179 c-36 -4 -108 -9 -160 -13 -106 -7 -184 -14 -247 -22 l-43 -5 0 -1165 0 -1164 23 0 c12 0 96 7 187 15 91 8 206 17 255 20 50 4 100 8 113 11 l22 4 0 1166 0 1165 -42 -3 c-24 -1 -72 -5 -108 -9z"/>
</g>
</svg>
